# xmcd
# 
# Track frame offsets:
#	150
#	16990
#	32112
#	45885
#	62320
#	79097
#	94382
#	111030
#	129350
#	150280
#	167235
#
# Disc length: 2474 seconds
#
# Revision: 1
# Processed by: cddbd v1.4PL0 Copyright (c) Steve Scherf et al.
# Submitted via: Audio-CD-Archiv 2.10.451
#
DISCID=7609a80b
DTITLE=Danny Adler - Gusha Gusha Music
DYEAR=1900
DGENRE=blues
TTITLE0=Solid Sender
TTITLE1=Fantasy Pants
TTITLE2=Rockaround
TTITLE3=T.G .I.  F.
TTITLE4=Ain´t Gonna Fight It
TTITLE5=Kiss It Goodbye
TTITLE6=R.I.P.
TTITLE7=Gusha-Gusha Woman
TTITLE8=Ghost Train
TTITLE9=The Ten Commandments Of The Boogie
TTITLE10=God On A Mudguard
EXTD=
EXTT0=
EXTT1=
EXTT2=
EXTT3=
EXTT4=
EXTT5=
EXTT6=
EXTT7=
EXTT8=
EXTT9=
EXTT10=
PLAYORDER=
